<svg xmlns="http://www.w3.org/2000/svg" viewBox="0 0 64 64">
  <defs>
    <linearGradient id="atlas-sky" x1="0%" x2="100%" y1="0%" y2="100%">
      <stop offset="0%" stop-color="#d7efe5" />
      <stop offset="100%" stop-color="#f1e3c8" />
    </linearGradient>
    <linearGradient id="atlas-planet" x1="18%" x2="78%" y1="14%" y2="92%">
      <stop offset="0%" stop-color="#1d7369" />
      <stop offset="100%" stop-color="#365c42" />
    </linearGradient>
  </defs>
  <rect width="64" height="64" rx="18" fill="url(#atlas-sky)" />
  <circle cx="32" cy="32" r="20" fill="url(#atlas-planet)" />
  <ellipse cx="32" cy="18" rx="16" ry="5.5" fill="#ffffff" fill-opacity=".32" />
  <path fill="#efe6d0" fill-opacity=".52" d="M21 23c4-4 10-5 16-2 2 1 1 4-2 5-8 2-11 5-14 4-3-1-3-4 0-7Z" />
  <path fill="#efe6d0" fill-opacity=".48" d="M38 37c5 0 8 4 7 8-1 4-6 6-10 4-4-3-3-12 3-12Z" />
  <circle cx="49" cy="19" r="4" fill="#d0a25d" />
  <circle cx="14" cy="47" r="3" fill="#d0a25d" fill-opacity=".78" />
</svg>
